<?xml version="1.0" encoding="UTF-8"?>
<!DOCTYPE svg PUBLIC "-//W3C//DTD SVG 1.1//EN" "http://www.w3.org/Graphics/SVG/1.1/DTD/svg11.dtd">
<!-- Creator: CorelDRAW -->
<svg xmlns="http://www.w3.org/2000/svg" xml:space="preserve" width="7.11111in" height="7.11111in" version="1.1" style="shape-rendering:geometricPrecision; text-rendering:geometricPrecision; image-rendering:optimizeQuality; fill-rule:evenodd; clip-rule:evenodd"
viewBox="0 0 7111 7111"
 xmlns:xlink="http://www.w3.org/1999/xlink">
 <defs>
  <style type="text/css">
   <![CDATA[
    .fil0 {fill:black}
   ]]>
  </style>
 </defs>
 <g id="Layer_x0020_1">
  <metadata id="CorelCorpID_0Corel-Layer"/>
  <path class="fil0" d="M6021 4928l0 -2647c0,-283 -231,-508 -513,-508l-3922 0c-283,0 -513,231 -513,508l0 2647c1649,0 3299,0 4948,0zm-3207 208l0 81c0,46 35,86 75,86l1338 0c41,0 75,-40 75,-86l0 -81 -1488 0zm1321 -1038c-29,0 -58,-12 -75,-35 -34,-40 -29,-104 12,-144l680 -571 -680 -565c-41,-35 -46,-98 -12,-144 35,-41 98,-47 144,-12l773 640c44,44 45,111 0,156l-773 652c-23,17 -46,23 -69,23zm-1171 0c-23,0 -46,-6 -63,-23l-760 -636c-52,-43 -64,-115 -13,-166l773 -640c40,-35 104,-29 144,11 35,41 29,104 -11,145l-681 565 681 571c40,34 46,98 11,144 -23,17 -52,29 -81,29zm202 340l583 -2226c11,-52 69,-87 121,-75 52,11 86,69 75,121l-588 2232c-38,131 -218,70 -191,-52zm3403 490l0 -3097c0,-334 -271,-611 -611,-611l-4816 0c-335,0 -611,271 -611,611l0 3097 334 0 0 -2647c0,-392 323,-709 715,-709l3922 0c392,0 715,317 715,709l0 2647 352 0zm-6246 0l0 -3097c0,-450 363,-813 813,-813l4822 0c449,0 813,363 813,813l0 3097 236 0c58,0 104,46 104,104l0 484c-11,318 -259,577 -559,577l-6004 0c-300,0 -548,-259 -548,-577l0 -484c0,-58 46,-104 104,-104l219 0zm-115 208l0 380c0,208 155,375 346,375l5998 0c190,0 346,-167 346,-375l0 -380 -2399 0 0 86c0,162 -122,289 -277,289l-1338 0c-150,0 -277,-127 -277,-289l0 -86 -2399 0z"/>
 </g>
</svg>
